<svg xmlns="http://www.w3.org/2000/svg" xml:space="preserve" style="enable-background:new 0 0 575 575" viewBox="0 0 575 575"><path d="M 0,0 H 575 V 575 H 0 Z" style="fill:#002d72" /><path d="m 453.67063,369.03132 c -0.0238,-5.79665 -1.78683,-11.45272 -5.06298,-16.23484 -5.22463,8.04849 -13.51557,11.87544 -22.97598,9.57452 -8.37176,-2.0252 -14.9893,-7.98669 -15.08913,-13.57737 V 221.75305 l 1.78274,0.73212 c 9.47943,3.88875 16.35844,12.93557 18.40741,24.21676 0.39458,2.23437 0.59424,4.45924 0.59424,6.63656 0,7.72997 -2.90943,14.58996 -7.54456,20.05228 8.6665,-1.7352 34.27143,-9.54599 34.27143,-41.85878 0,-29.82171 -24.10267,-48.05798 -46.4844,-52.38885 l -1.02686,-0.20918 V 90.167668 c 0.0951,-5.600187 6.71737,-11.566431 15.08913,-13.591626 9.46517,-2.291418 17.75611,1.526028 22.97598,9.574514 3.27739,-4.779741 5.04145,-10.434689 5.06298,-16.230084 -0.0333,-8.158004 -3.08162,-16.015666 -8.55716,-22.063217 -12.46018,-13.753261 -33.07343,-13.800801 -55.14615,-0.128357 l -0.69884,0.432612 -0.67506,-0.432612 C 366.50643,34.056454 345.88367,34.103994 333.433,47.857255 c -5.47086,6.041428 -8.51225,13.893837 -8.53815,22.044201 0,5.81887 1.80651,11.423811 5.06774,16.244346 5.23889,-8.067502 13.52983,-11.875439 23.00926,-9.574514 8.34799,2.029949 14.96077,8.000947 15.05585,13.610642 v 99.19653 l -0.70834,0.3613 c -17.25694,8.99928 -32.71688,21.62585 -45.97098,37.54217 l -0.98882,1.198 -1.00309,-1.20751 c 0,0 -113.42519,-137.523102 -113.69617,-138.626025 1.27882,-5.837886 8.86142,-11.352502 17.30449,-12.540997 8.58093,-1.20751 15.81173,2.681245 20.59899,10.040404 3.26557,-4.784352 5.02247,-10.437541 5.04397,-16.230084 -0.0252,-8.16059 -3.0757,-16.021917 -8.56192,-22.063217 C 227.59992,34.09924 206.96289,34.0517 184.89492,47.724144 l -0.67506,0.432612 -0.68457,-0.432612 C 161.4578,34.042192 140.84455,34.09924 128.37486,47.852501 c -5.47474,6.048031 -8.52219,13.905384 -8.55716,22.063217 0,5.809362 1.80651,11.414303 5.0725,16.230084 5.23888,-8.067502 13.52982,-11.875439 23.00926,-9.574514 8.34798,2.029949 14.96077,8.000947 15.05585,13.610642 v 89.01826 l -1.0126,0.22343 c -22.40075,4.93939 -44.99641,22.97123 -44.99641,52.10837 0,32.3223 25.66198,40.12833 34.2952,41.85878 -4.59709,-5.44806 -7.55407,-12.3746 -7.55407,-20.1331 0,-1.76848 0.14262,-3.57499 0.41835,-5.39101 1.64012,-11.06251 7.99619,-20.28523 17.00023,-24.67315 l 1.8493,-0.8985 v 126.50338 c -0.0951,5.58117 -6.70787,11.54266 -15.05585,13.56785 -9.47944,2.30568 -17.77038,-1.50225 -23.00926,-9.56976 -3.27754,4.78021 -5.04463,10.43424 -5.0725,16.23009 0,7.81554 2.90944,15.81173 8.55716,22.06322 12.46969,13.75326 33.08294,13.8103 55.16043,0.12835 l 0.68457,-0.43261 0.67506,0.43261 c 22.08699,13.67245 42.70975,13.62491 55.15091,-0.12835 5.48975,-6.03913 8.54099,-13.90188 8.56192,-22.06322 0,-5.80936 -1.797,-11.40955 -5.04397,-16.23009 -5.25315,8.06751 -13.5631,11.87544 -23.02352,9.56976 -8.3575,-2.02519 -14.97504,-7.98668 -15.05585,-13.59162 V 231.63658 l 2.02519,1.3834 c 31.45233,21.44045 55.72614,65.25787 58.64984,92.87374 v 144.97259 c 0,15.42666 -10.44449,27.26882 -20.50866,29.80744 -7.10245,1.78275 -13.29688,-1.31685 -17.60399,-7.83455 -3.20418,4.74922 -4.99643,10.13073 -4.99643,15.61682 0,6.87901 2.50059,13.76277 7.43047,19.20132 12.23674,13.52032 33.28261,13.0877 56.24432,-1.15046 l 0.68933,-0.41835 0.68933,0.41835 c 22.96172,14.23341 43.99332,14.67078 56.23957,1.15046 4.78442,-5.25072 7.43745,-12.09774 7.43998,-19.20132 0,-5.48609 -1.81602,-10.8676 -5.00594,-15.62633 -4.15498,6.2182 -10.11647,9.17518 -17.00023,7.45424 -10.19253,-2.5719 -21.10292,-15.00831 -21.10292,-29.42238 V 327.87613 c 0.63228,-9.85025 4.46875,-22.55763 10.74875,-35.79271 l 0.87473,-1.85405 1.30735,1.59258 c 0,0 46.06605,56.62464 46.36555,57.58019 -0.57047,5.70953 -7.62538,11.51414 -16.04467,13.2018 -4.43547,0.87473 -15.01782,1.32636 -22.09174,-9.57451 -3.14714,4.77299 -4.93939,10.29236 -4.93939,16.02091 0.0257,8.15046 3.0669,16.00303 8.53815,22.0442 12.45067,13.75326 33.07343,13.8008 55.16042,0.12836 l 0.67506,-0.43262 0.69884,0.43262 c 22.06797,13.67244 42.68597,13.6249 55.14615,-0.12836 5.47668,-6.04682 8.52446,-13.90496 8.55716,-22.06322 z m -166.21812,-81.43566 -1.15046,-2.97123 C 264.95668,228.3183 230.94196,201.52487 206.1975,188.9506 l -0.70834,-0.3518 v -39.4295 l 92.14638,113.2065 0.46589,0.67507 z m 80.57995,-1.30259 -25.22462,-30.57759 0.69884,-0.82719 c 7.07867,-8.21963 14.6375,-15.21749 22.47206,-20.7844 l 2.05847,-1.44521 v 53.63439 z" style="fill:#ff5910" /></svg>